<svg width="187" height="129" viewBox="0 0 187 129" fill="none" xmlns="http://www.w3.org/2000/svg">
<path d="M106.116 0.0806498C105.608 -0.136641 105.02 0.0988168 104.803 0.60656C104.586 1.1143 104.821 1.70206 105.329 1.91935L106.116 0.0806498ZM0.159111 122.459C-0.13979 122.923 -0.0056181 123.542 0.458792 123.841L8.02679 128.712C8.4912 129.011 9.10999 128.876 9.40889 128.412C9.70779 127.948 9.57362 127.329 9.10921 127.03L2.3821 122.7L6.71176 115.973C7.01066 115.509 6.87649 114.89 6.41208 114.591C5.94767 114.292 5.32889 114.426 5.02998 114.891L0.159111 122.459ZM105.722 1L105.329 1.91935C118.384 7.50662 133.152 14.8113 146.408 22.9425C159.683 31.0856 171.36 40.0092 178.312 48.8137C181.785 53.2129 184.028 57.5204 184.748 61.6327C185.462 65.709 184.691 69.6482 182.027 73.4019C179.342 77.1859 174.697 80.832 167.577 84.184C160.464 87.533 150.943 90.5597 138.588 93.1395L138.792 94.1184L138.997 95.0973C151.444 92.4983 161.128 89.4312 168.429 85.9935C175.724 82.5589 180.702 78.7255 183.658 74.5592C186.636 70.3627 187.522 65.881 186.718 61.2878C185.92 56.7305 183.47 52.1198 179.881 47.5744C172.709 38.4898 160.79 29.4184 147.454 21.2377C134.098 13.0452 119.24 5.69746 106.116 0.0806498L105.722 1ZM138.792 94.1184L138.588 93.1395C39.38 113.854 5.386 121.026 0.788094 122.023L1 123L1.21191 123.977C5.80016 122.982 39.7837 115.813 138.997 95.0973L138.792 94.1184Z" fill="#3E372D"/>
</svg>
