<svg width="230" height="138" viewBox="0 0 230 138" fill="none" xmlns="http://www.w3.org/2000/svg">
<path d="M76.112 1.79089C76.5488 1.45291 76.6289 0.82483 76.2909 0.388036C75.9529 -0.048758 75.3248 -0.128864 74.8881 0.209114L76.112 1.79089ZM229.698 131.216C230.094 130.83 230.101 130.197 229.716 129.802L223.43 123.36C223.044 122.965 222.411 122.957 222.016 123.343C221.62 123.729 221.613 124.362 221.998 124.757L227.586 130.483L221.86 136.07C221.465 136.456 221.458 137.089 221.843 137.484C222.229 137.88 222.862 137.887 223.257 137.502L229.698 131.216ZM75.5 1L74.8881 0.209114C62.1484 10.0667 47.881 22.4597 35.3016 35.5798C22.734 48.6877 11.798 62.5762 5.78186 75.426C-0.222052 88.2497 -1.45088 100.344 5.98115 109.508C13.3368 118.578 28.9111 124.397 55.4585 125.499L55.5 124.5L55.5415 123.501C29.0889 122.403 14.3091 116.601 7.5345 108.248C0.836324 99.9892 1.70124 88.8586 7.59317 76.274C13.4729 63.7155 24.2348 50.0123 36.7453 36.9639C49.2441 23.9278 63.435 11.6 76.112 1.79089L75.5 1ZM55.5 124.5L55.4585 125.499C161.459 129.899 215.305 131.333 228.988 131.5L229 130.5L229.012 129.5C215.362 129.334 161.541 127.901 55.5415 123.501L55.5 124.5Z" fill="#3E372D"/>
</svg>
