<svg width="220" height="95" viewBox="0 0 220 95" fill="none" xmlns="http://www.w3.org/2000/svg">
<path d="M11.0448 0.226787C11.4718 -0.123442 12.1019 -0.06118 12.4522 0.365854C12.8024 0.792888 12.7401 1.42298 12.3131 1.77321L11.0448 0.226787ZM217.144 94.2605C217.001 94.7937 216.452 95.1094 215.918 94.9655L207.229 92.6208C206.696 92.4769 206.38 91.928 206.524 91.3948C206.668 90.8616 207.217 90.5459 207.75 90.6898L215.474 92.774L217.558 85.0503C217.702 84.5171 218.251 84.2014 218.784 84.3453C219.317 84.4892 219.633 85.0381 219.489 85.5713L217.144 94.2605ZM11.679 1L12.3131 1.77321C1.10158 10.9683 -1.96488 26.3007 8.11966 38.797C18.284 51.3923 42.0319 61.3955 85.1235 59.0015L85.179 60L85.2344 60.9985C41.926 63.4045 17.3405 53.4077 6.56325 40.053C-4.29388 26.5993 -0.910337 10.0317 11.0448 0.226787L11.679 1ZM85.179 60L85.1235 59.0015C128.426 56.5959 159.396 61.7708 180.538 69.2574C201.641 76.7303 213.045 86.5433 217.046 93.5015L216.179 94L215.312 94.4985C211.646 88.1233 200.75 78.5364 179.87 71.1426C159.029 63.7625 128.332 58.6041 85.2344 60.9985L85.179 60Z" fill="#3E372D"/>
</svg>
