<svg width="221" height="96" viewBox="0 0 221 96" fill="none" xmlns="http://www.w3.org/2000/svg">
<path d="M209.134 0.726787C208.707 0.376558 208.077 0.43882 207.727 0.865854C207.377 1.29289 207.439 1.92298 207.866 2.27321L209.134 0.726787ZM3.03453 94.7605C3.17842 95.2937 3.72731 95.6094 4.26052 95.4655L12.9497 93.1208C13.4829 92.9769 13.7986 92.428 13.6547 91.8948C13.5108 91.3616 12.9619 91.0459 12.4287 91.1898L4.70494 93.274L2.62076 85.5503C2.47688 85.0171 1.92798 84.7014 1.39477 84.8453C0.861557 84.9892 0.545942 85.5381 0.689825 86.0713L3.03453 94.7605ZM208.5 1.5L207.866 2.27321C219.077 11.4683 222.144 26.8007 212.059 39.297C201.895 51.8923 178.147 61.8955 135.055 59.5015L135 60.5L134.945 61.4985C178.253 63.9045 202.838 53.9077 213.616 40.553C224.473 27.0993 221.089 10.5317 209.134 0.726787L208.5 1.5ZM135 60.5L135.055 59.5015C91.7532 57.0959 60.7831 62.2708 39.6412 69.7574C18.5378 77.2303 7.13406 87.0433 3.13309 94.0015L4 94.5L4.86691 94.9985C8.5326 88.6233 19.4289 79.0364 40.3088 71.6426C61.1503 64.2625 91.8468 59.1041 134.945 61.4985L135 60.5Z" fill="#3E372D"/>
</svg>
