<svg width="28" height="28" viewBox="0 0 28 28" fill="currentColor" xmlns="http://www.w3.org/2000/svg">
  <path fill-rule="evenodd" clip-rule="evenodd" d="M8.16667 6.70833C8.16667 5.16124 8.78125 3.67751 9.87521 2.58354C10.9692 1.48958 12.4529 0.875 14 0.875C15.5471 0.875 17.0308 1.48958 18.1248 2.58354C19.2188 3.67751 19.8333 5.16124 19.8333 6.70833C19.8333 8.25543 19.2188 9.73916 18.1248 10.8331C17.0308 11.9271 15.5471 12.5417 14 12.5417C12.4529 12.5417 10.9692 11.9271 9.87521 10.8331C8.78125 9.73916 8.16667 8.25543 8.16667 6.70833ZM8.16667 15.4583C6.2328 15.4583 4.37813 16.2266 3.01068 17.594C1.64323 18.9615 0.875 20.8161 0.875 22.75C0.875 23.9103 1.33594 25.0231 2.15641 25.8436C2.97688 26.6641 4.08968 27.125 5.25 27.125H22.75C23.9103 27.125 25.0231 26.6641 25.8436 25.8436C26.6641 25.0231 27.125 23.9103 27.125 22.75C27.125 20.8161 26.3568 18.9615 24.9893 17.594C23.6219 16.2266 21.7672 15.4583 19.8333 15.4583H8.16667Z" fill="currentColor"/>
</svg>
