<svg width="203" height="170" viewBox="0 0 203 170" fill="none" xmlns="http://www.w3.org/2000/svg">
<path d="M0.43079 20.6779C-0.0232942 20.9922 -0.136558 21.6152 0.177808 22.0693C0.492174 22.5234 1.11513 22.6366 1.56921 22.3223L0.43079 20.6779ZM202.922 135.388C203.136 134.879 202.897 134.292 202.388 134.078L194.092 130.588C193.583 130.373 192.997 130.612 192.783 131.121C192.569 131.63 192.808 132.217 193.317 132.431L200.69 135.534L197.588 142.908C197.373 143.417 197.612 144.003 198.121 144.217C198.63 144.431 199.217 144.192 199.431 143.683L202.922 135.388ZM1 21.5001L1.56921 22.3223C10.737 15.9753 21.331 9.87768 31.2079 6.11099C36.146 4.22776 40.8748 2.93893 45.1369 2.48166C49.4042 2.02385 53.1389 2.40633 56.1428 3.79524C62.0046 6.50549 65.6096 13.3511 64.247 27.1817C62.8861 40.9949 56.5787 61.41 43.0923 90.5804L44 91.0001L44.9077 91.4197C58.4213 62.1902 64.8431 41.5302 66.2374 27.3778C67.63 13.2428 64.0162 5.23214 56.9822 1.97989C53.5382 0.387549 49.4057 0.0122154 44.9236 0.493075C40.4364 0.97448 35.5336 2.32081 30.4952 4.24227C20.419 8.08496 9.67966 14.2748 0.43079 20.6779L1 21.5001ZM44 91.0001L43.0923 90.5804C29.5732 119.822 27.8763 139.462 34.6214 151.87C41.3983 164.336 56.4137 169.027 74.9954 169.113C93.6359 169.199 116.243 164.661 138.774 158.238C161.32 151.811 183.856 143.476 202.377 135.926L202 135L201.623 134.074C183.144 141.607 160.68 149.914 138.226 156.315C115.757 162.72 93.3641 167.197 75.0046 167.113C56.5863 167.028 42.6017 162.362 36.3786 150.915C30.1237 139.409 31.4268 120.578 44.9077 91.4197L44 91.0001Z" fill="#3E372D"/>
</svg>
